<?xml version="1.0" encoding="UTF-8"?>
<svg id="Capa_2" xmlns="http://www.w3.org/2000/svg" xmlns:xlink="http://www.w3.org/1999/xlink" viewBox="0 0 241.39 241.39">
  <defs>
    <style>
      .cls-1 {
        fill: #fff;
      }

      .cls-2 {
        fill: url(#Degradado_sin_nombre_3-3);
      }

      .cls-3 {
        fill: none;
        stroke: #a48241;
        stroke-miterlimit: 10;
        stroke-width: 1.38px;
      }

      .cls-4 {
        fill: url(#Degradado_sin_nombre_2-4);
      }

      .cls-5 {
        fill: url(#Degradado_sin_nombre_3-5);
      }

      .cls-6 {
        fill: url(#Degradado_sin_nombre_3-2);
      }

      .cls-7 {
        fill: url(#Degradado_sin_nombre_2);
      }

      .cls-8 {
        fill: url(#Degradado_sin_nombre_3-6);
      }

      .cls-9 {
        fill: url(#Degradado_sin_nombre_2-5);
      }

      .cls-10 {
        fill: url(#Degradado_sin_nombre_3);
      }

      .cls-11 {
        fill: url(#Degradado_sin_nombre_3-7);
      }

      .cls-12 {
        fill: url(#Degradado_sin_nombre_2-3);
      }

      .cls-13 {
        fill: url(#Degradado_sin_nombre_3-4);
      }

      .cls-14 {
        fill: url(#Degradado_sin_nombre_2-2);
      }

      .cls-15 {
        fill: #f4bd0e;
      }
    </style>
    <linearGradient id="Degradado_sin_nombre_3" data-name="Degradado sin nombre 3" x1="24.09" y1="106.26" x2="165.08" y2="106.26" gradientTransform="translate(47 -22.2) rotate(5.19)" gradientUnits="userSpaceOnUse">
      <stop offset="0" stop-color="#b41b25"/>
      <stop offset=".15" stop-color="#c41523"/>
      <stop offset=".33" stop-color="#d01222"/>
      <stop offset=".5" stop-color="#d51122"/>
      <stop offset=".67" stop-color="#d01222"/>
      <stop offset=".85" stop-color="#c41523"/>
      <stop offset="1" stop-color="#b41b25"/>
    </linearGradient>
    <linearGradient id="Degradado_sin_nombre_3-2" data-name="Degradado sin nombre 3" x1="20.46" y1="180.95" x2="161.46" y2="180.95" xlink:href="#Degradado_sin_nombre_3"/>
    <linearGradient id="Degradado_sin_nombre_3-3" data-name="Degradado sin nombre 3" x1="24.09" y1="126.37" x2="165.08" y2="126.37" xlink:href="#Degradado_sin_nombre_3"/>
    <linearGradient id="Degradado_sin_nombre_3-4" data-name="Degradado sin nombre 3" x1="20.46" y1="160.84" x2="161.46" y2="160.84" xlink:href="#Degradado_sin_nombre_3"/>
    <linearGradient id="Degradado_sin_nombre_2" data-name="Degradado sin nombre 2" x1="22.81" y1="146.48" x2="163.81" y2="146.48" gradientTransform="translate(47 -22.2) rotate(5.19)" gradientUnits="userSpaceOnUse">
      <stop offset="0" stop-color="#ffcc07"/>
      <stop offset=".31" stop-color="#f9b006"/>
      <stop offset=".55" stop-color="#fcda14"/>
      <stop offset=".67" stop-color="#feeb1a"/>
      <stop offset=".76" stop-color="#fde016"/>
      <stop offset=".91" stop-color="#fac40d"/>
      <stop offset="1" stop-color="#f9b006"/>
    </linearGradient>
    <linearGradient id="Degradado_sin_nombre_3-5" data-name="Degradado sin nombre 3" x1="20.46" y1="150.65" x2="161.46" y2="150.65" xlink:href="#Degradado_sin_nombre_3"/>
    <linearGradient id="Degradado_sin_nombre_2-2" data-name="Degradado sin nombre 2" x1="22.81" y1="150.65" x2="163.81" y2="150.65" xlink:href="#Degradado_sin_nombre_2"/>
    <linearGradient id="Degradado_sin_nombre_2-3" data-name="Degradado sin nombre 2" x1="22.81" y1="142.08" x2="163.81" y2="142.08" xlink:href="#Degradado_sin_nombre_2"/>
    <linearGradient id="Degradado_sin_nombre_3-6" data-name="Degradado sin nombre 3" x1="20.46" y1="154.4" x2="161.46" y2="154.4" xlink:href="#Degradado_sin_nombre_3"/>
    <linearGradient id="Degradado_sin_nombre_2-4" data-name="Degradado sin nombre 2" x1="22.81" y1="154.4" x2="163.81" y2="154.4" xlink:href="#Degradado_sin_nombre_2"/>
    <linearGradient id="Degradado_sin_nombre_3-7" data-name="Degradado sin nombre 3" x1="20.46" y1="157.98" x2="161.46" y2="157.98" xlink:href="#Degradado_sin_nombre_3"/>
    <linearGradient id="Degradado_sin_nombre_2-5" data-name="Degradado sin nombre 2" x1="22.81" y1="157.98" x2="163.81" y2="157.98" xlink:href="#Degradado_sin_nombre_2"/>
  </defs>
  <g id="Capa_1-2" data-name="Capa_1">
    <g>
      <circle class="cls-1" cx="24.45" cy="126.4" r="5.92"/>
      <circle class="cls-1" cx="217.11" cy="143.91" r="5.92"/>
      <path class="cls-1" d="M113.82,196.34c-40.89-3.72-71.14-40.01-67.42-80.91,3.72-40.89,40.01-71.14,80.91-67.42,40.89,3.72,71.14,40.01,67.42,80.9-3.72,40.89-40.01,71.14-80.9,67.42ZM127.16,49.57c-40.04-3.64-75.57,25.97-79.21,66.01-3.64,40.04,25.97,75.57,66.01,79.21,40.04,3.64,75.57-25.97,79.21-66.01,3.64-40.04-25.97-75.57-66.01-79.21Z"/>
      <path class="cls-1" d="M109.77,240.89C43.49,234.87-5.52,176.05.5,109.77,6.53,43.49,65.35-5.52,131.62.5c66.28,6.03,115.29,64.85,109.27,131.12-6.03,66.28-64.85,115.29-131.12,109.27ZM131.48,2.06C66.06-3.89,8,44.49,2.06,109.91c-5.95,65.42,42.44,123.48,107.85,129.43,65.42,5.95,123.48-42.44,129.43-107.85C245.28,66.06,196.9,8,131.48,2.06Z"/>
      <g>
        <path class="cls-1" d="M17.4,108.12l-.53,3.79-4.26-.6,1.62-11.49,4.26.6-.53,3.79,24.22,3.41-.55,3.91-24.22-3.41Z"/>
        <path class="cls-1" d="M22.19,95.95c-.96-.3-1.84-.71-2.63-1.21-.79-.5-1.42-1.09-1.91-1.77-.48-.68-.8-1.43-.94-2.27-.14-.83-.05-1.75.26-2.74.31-.99.77-1.79,1.36-2.4.59-.6,1.28-1.04,2.07-1.32.78-.28,1.64-.4,2.58-.36.93.04,1.88.21,2.85.51l14.14,4.45c.96.3,1.84.71,2.63,1.21.79.5,1.42,1.09,1.91,1.77.48.68.8,1.43.94,2.27.14.83.05,1.75-.26,2.74-.31.99-.77,1.79-1.36,2.4-.59.6-1.28,1.04-2.07,1.32-.78.28-1.64.4-2.58.36-.93-.04-1.88-.21-2.85-.51l-14.14-4.45ZM37.4,96.6c1.04.33,1.85.43,2.43.3.58-.13,1-.58,1.24-1.35.24-.77.16-1.37-.24-1.81-.41-.44-1.13-.82-2.17-1.15l-13.91-4.38c-1.04-.33-1.85-.43-2.43-.3-.58.13-1,.58-1.24,1.35-.24.77-.16,1.37.24,1.81.41.44,1.13.82,2.17,1.15l13.91,4.38Z"/>
        <path class="cls-1" d="M30.21,60.54l25.06,14.13-1.69,3-19.57-11.04-.03.06,17.82,14.15-.94,1.67-21.33-7.93-.03.06,19.57,11.04-1.69,3-25.05-14.13,2.55-4.52,16.02,5.81.03-.06-13.27-10.7,2.55-4.52Z"/>
        <path class="cls-1" d="M58.4,71.08l-2.49,2.9-19.06-21.96,3.2-3.72,24.58,15.53-2.49,2.9-5.29-3.62-2.82,3.29,4.38,4.68ZM51.14,63.15l2.08-2.42-10.39-6.86-.04.05,8.35,9.23Z"/>
        <path class="cls-1" d="M51.65,42.84l-2.91,2.48-2.79-3.27,8.83-7.53,2.79,3.27-2.91,2.48,15.87,18.61-3.01,2.56-15.87-18.61Z"/>
        <path class="cls-1" d="M74.63,55.6l-15.08-24.49,9.01-5.55,2.26,3.66-5.65,3.48,3.89,6.31,4.34-2.67,2.26,3.66-4.34,2.67,4.43,7.19,6.03-3.71,2.26,3.66-9.39,5.78Z"/>
        <path class="cls-1" d="M88.88,23.37l-2.98.93-.79-2.55c.69-.8,1.31-1.61,1.88-2.42.57-.82,1.06-1.65,1.49-2.51l1.92-.6,8.68,27.84-3.41,1.06-6.78-21.76Z"/>
        <path class="cls-1" d="M101.43,21.52c-.37-2.71-.21-4.75.48-6.12.69-1.37,2.03-2.19,4.01-2.46,1.98-.27,3.49.16,4.52,1.29,1.03,1.13,1.74,3.05,2.11,5.76l1.86,13.66c.37,2.71.21,4.75-.48,6.12-.69,1.37-2.03,2.19-4.01,2.46-1.98.27-3.49-.16-4.52-1.29-1.03-1.13-1.74-3.05-2.11-5.76l-1.86-13.66ZM108.65,19.29c-.25-1.82-.98-2.64-2.2-2.47-1.22.17-1.71,1.16-1.46,2.97l2.2,16.11c.25,1.82.98,2.64,2.2,2.47,1.22-.17,1.71-1.16,1.46-2.97l-2.2-16.1Z"/>
        <path class="cls-1" d="M118.03,19.72c.08-2.73.58-4.72,1.49-5.95.91-1.23,2.36-1.82,4.36-1.76,2,.06,3.41.73,4.24,2.02.83,1.29,1.21,3.3,1.13,6.03l-.41,13.78c-.08,2.73-.58,4.72-1.49,5.95-.91,1.23-2.36,1.82-4.36,1.76-2-.06-3.41-.73-4.24-2.02-.83-1.29-1.21-3.3-1.13-6.03l.41-13.78ZM125.52,18.71c.05-1.83-.53-2.77-1.77-2.8-1.23-.04-1.87.86-1.93,2.69l-.49,16.25c-.06,1.83.53,2.77,1.77,2.8,1.23.04,1.88-.86,1.93-2.69l.49-16.25Z"/>
        <path class="cls-1" d="M155.7,17.44l-20.07,25.32-2.31-.6,20.07-25.32,2.31.6ZM136,19.47c.23-.87.58-1.66,1.04-2.36.47-.7,1-1.28,1.6-1.72.6-.45,1.25-.76,1.96-.93s1.41-.17,2.1.01c.7.18,1.31.52,1.84,1.02.53.49.95,1.08,1.25,1.77.3.68.49,1.45.56,2.29.07.84-.01,1.7-.24,2.57-.23.87-.58,1.66-1.04,2.36-.47.7-1,1.28-1.6,1.72-.6.45-1.25.76-1.96.93-.7.17-1.41.17-2.1-.01-.7-.18-1.31-.52-1.84-1.02-.53-.49-.95-1.08-1.25-1.77-.31-.68-.49-1.45-.56-2.29-.07-.84.01-1.7.24-2.57ZM138.47,20.11c-.23.9-.18,1.73.16,2.49.34.76.87,1.23,1.59,1.42.72.19,1.41.03,2.08-.47.67-.5,1.12-1.2,1.35-2.1.23-.9.18-1.73-.16-2.49-.34-.76-.87-1.23-1.59-1.42-.72-.19-1.41-.03-2.08.47-.67.5-1.12,1.2-1.35,2.1ZM142.84,37.47c.23-.87.58-1.66,1.04-2.36.47-.7,1-1.28,1.6-1.72.6-.45,1.25-.76,1.96-.93.7-.17,1.4-.17,2.1.01.7.18,1.31.52,1.84,1.02.53.49.95,1.08,1.25,1.77.3.68.49,1.44.56,2.29.07.84-.01,1.7-.24,2.57-.23.87-.58,1.66-1.04,2.36-.47.7-1,1.28-1.6,1.72-.6.45-1.25.76-1.96.93-.7.17-1.41.17-2.1-.01-.7-.18-1.31-.52-1.84-1.02-.53-.49-.95-1.08-1.25-1.77-.31-.68-.49-1.45-.56-2.29-.07-.84.01-1.7.24-2.57ZM145.31,38.11c-.23.9-.18,1.73.16,2.49.34.76.87,1.24,1.59,1.42.72.19,1.41.03,2.08-.47.67-.5,1.12-1.2,1.35-2.1.23-.9.18-1.73-.16-2.49-.34-.76-.87-1.23-1.59-1.42-.72-.19-1.41-.03-2.08.47-.67.5-1.12,1.2-1.35,2.1Z"/>
        <path class="cls-1" d="M159.07,50.77l15.46-24.26,8.92,5.69-2.31,3.63-5.59-3.56-3.98,6.25,4.3,2.74-2.31,3.63-4.3-2.74-4.54,7.12,5.97,3.8-2.31,3.63-9.3-5.93Z"/>
        <path class="cls-1" d="M189.93,46.79c.38-.48.65-.92.83-1.32.17-.4.26-.75.27-1.07.01-.31-.04-.59-.14-.82-.1-.24-.23-.42-.39-.57-.47-.43-1-.57-1.58-.43-.58.14-1.17.54-1.78,1.21-.55.61-.91,1.31-1.08,2.08-.17.78-.27,1.62-.29,2.53-.02.91,0,1.86.04,2.86s.01,2-.11,3.03c-.13,1.03-.39,2.06-.78,3.08-.39,1.02-1.02,2.02-1.89,2.99-.8.89-1.62,1.57-2.46,2.04-.84.47-1.67.76-2.49.86-.82.1-1.62.01-2.41-.27-.79-.28-1.52-.73-2.2-1.34-.68-.61-1.14-1.32-1.4-2.12-.25-.8-.32-1.64-.2-2.51.12-.88.39-1.76.83-2.66.43-.9,1-1.76,1.7-2.6l3.25,2.01c-.92,1.14-1.45,2.12-1.62,2.94-.16.82,0,1.44.46,1.87.51.46,1.07.66,1.69.61.62-.05,1.21-.39,1.78-1.02.64-.71,1.06-1.47,1.27-2.29.21-.82.32-1.68.34-2.59.02-.91,0-1.86-.06-2.84-.06-.98-.03-1.98.07-2.99.11-1.01.36-2.03.77-3.06.4-1.03,1.06-2.06,1.99-3.09,1.55-1.72,3.13-2.68,4.74-2.89,1.62-.21,3.15.34,4.6,1.65.6.54,1.02,1.15,1.26,1.84.24.68.32,1.41.25,2.18-.08.77-.29,1.57-.65,2.39-.36.82-.84,1.64-1.45,2.45l-3.14-2.13Z"/>
        <path class="cls-1" d="M179.72,66.98l22.68-17.7,3.49,4.47c1.5,1.93,2.1,3.75,1.78,5.46-.31,1.71-1.67,3.51-4.08,5.39-1.21.95-2.33,1.64-3.36,2.07-1.02.44-1.98.63-2.88.59-.89-.04-1.74-.33-2.53-.85-.8-.52-1.57-1.26-2.31-2.22l-1.06-1.36-9.3,7.26-2.43-3.12ZM194.65,60.34l.94,1.21c.39.5.77.88,1.15,1.15.37.26.78.39,1.21.39.44,0,.91-.14,1.43-.41.52-.27,1.11-.66,1.78-1.19.67-.52,1.2-1,1.58-1.44.38-.44.63-.86.72-1.27.1-.41.07-.84-.08-1.27-.15-.43-.43-.9-.82-1.4l-.94-1.21-6.97,5.44Z"/>
        <path class="cls-1" d="M189.7,80.94l-1.79-3.38,27.4-9.73,2.3,4.34-23.42,17.22-1.79-3.38,5.3-3.61-2.03-3.83-5.96,2.37ZM199.72,77.06l1.49,2.82,10.18-7.17-.03-.06-11.64,4.41Z"/>
        <path class="cls-1" d="M194.62,90.58l27.38-8.81,1.12,3.49-14.19,9.62.02.06,15.66-5.04,1.09,3.4-27.38,8.81-1.05-3.28,15.56-10.3-.02-.06-17.1,5.51-1.09-3.4ZM231.86,90.42c-.56.09-1.13.15-1.72.17-.59.02-1.14-.02-1.63-.13-.49-.11-.93-.3-1.31-.57-.38-.27-.65-.66-.81-1.16-.12-.36-.15-.73-.1-1.1.05-.37.12-.74.23-1.11.1-.37.18-.72.22-1.06.04-.34.01-.67-.09-.99-.15-.47-.39-.74-.73-.84-.34-.09-.79-.06-1.35.1l-.55-1.7c.56-.09,1.13-.15,1.72-.19.59-.03,1.13,0,1.63.11.5.11.93.3,1.32.58.38.28.66.67.82,1.18.12.36.15.73.1,1.1-.05.37-.11.74-.19,1.1-.08.36-.15.71-.22,1.06-.07.35-.05.68.05,1,.15.47.39.74.73.84.34.09.79.06,1.35-.1l.55,1.7Z"/>
        <path class="cls-1" d="M220.54,102.07c1-.13,1.97-.12,2.89,0,.93.13,1.75.4,2.47.82.72.41,1.32.97,1.79,1.67.47.7.78,1.57.91,2.6.13,1.03.05,1.95-.24,2.74-.29.8-.73,1.48-1.33,2.06-.6.58-1.33,1.04-2.19,1.4-.87.35-1.8.59-2.8.72l-14.71,1.83c-1,.12-1.97.12-2.89,0-.93-.13-1.75-.4-2.47-.82s-1.32-.97-1.79-1.67c-.48-.7-.78-1.57-.91-2.6-.13-1.03-.05-1.95.24-2.74.29-.8.73-1.48,1.33-2.06.6-.58,1.33-1.04,2.19-1.4.87-.35,1.8-.59,2.8-.72l14.71-1.83ZM206.45,107.81c-1.08.13-1.86.38-2.34.74-.48.36-.67.94-.57,1.74.1.8.43,1.32.98,1.55.55.23,1.37.28,2.45.14l14.47-1.8c1.08-.13,1.86-.38,2.34-.74s.67-.94.57-1.74c-.1-.8-.43-1.32-.98-1.55-.55-.23-1.37-.28-2.45-.14l-14.47,1.8Z"/>
        <path class="cls-1" d="M200.4,119.47l28.74,1.2-.16,3.95-24.44-1.02-.26,6.21-4.3-.18.42-10.16Z"/>
      </g>
      <g>
        <path class="cls-1" d="M31.44,149.7l2.14-.62c1.17-.34,1.97-.76,2.39-1.28.42-.52.56-1.02.42-1.51-.22-.78-.62-1.24-1.2-1.38-.58-.14-1.39-.07-2.44.23l-14.02,4.02c-1.05.3-1.78.66-2.19,1.09-.42.43-.51,1.03-.29,1.81.2.69.58,1.11,1.14,1.23.56.13,1.29.06,2.18-.19l3.33-.96,1.09,3.8-3.18.91c-.97.28-1.92.42-2.86.44-.94.01-1.79-.12-2.56-.39-.77-.28-1.44-.72-2.02-1.33-.58-.61-1-1.38-1.27-2.32-.29-1-.35-1.92-.19-2.75.16-.83.49-1.58,1-2.24.5-.66,1.15-1.24,1.95-1.72.8-.48,1.69-.86,2.66-1.14l14.25-4.09c.97-.28,1.92-.42,2.86-.44.93-.01,1.79.13,2.57.42.78.3,1.45.75,2.03,1.37s1.01,1.43,1.3,2.43c.27.94.3,1.82.1,2.66-.2.83-.58,1.58-1.14,2.23-.56.66-1.26,1.23-2.11,1.73-.85.5-1.79.89-2.81,1.19l-2.03.58-1.09-3.8Z"/>
        <path class="cls-1" d="M43.06,154.21l1.77,3.53-19.41,9.74c-1.87.94-2.5,2.04-1.87,3.29.63,1.25,1.88,1.41,3.76.47l19.41-9.74,1.77,3.53-19.23,9.65c-2.23,1.12-4.17,1.49-5.81,1.12-1.64-.38-2.89-1.41-3.74-3.1-.85-1.69-.93-3.31-.25-4.85.68-1.54,2.14-2.87,4.37-3.99l19.23-9.65Z"/>
        <path class="cls-1" d="M27.06,184.71l23.25-16.94,2.33,3.19-19.77,14.4,3.66,5.02-3.48,2.53-5.99-8.22Z"/>
        <path class="cls-1" d="M56.27,182.2l-2.67-2.74,3.08-3.01,8.1,8.3-3.08,3-2.67-2.74-17.5,17.09-2.76-2.83,17.5-17.09Z"/>
        <path class="cls-1" d="M48.96,208.84l17.94-22.48,3.09,2.46-17.94,22.48-3.09-2.47Z"/>
        <path class="cls-1" d="M80.14,195.47l3.34,2-18.9,22.21-3.39-2.03,10.64-27.15,3.34,2-7.79,18.6.05.03,12.71-15.65Z"/>
        <path class="cls-1" d="M82.67,204.72c.36-.94.81-1.79,1.36-2.55.55-.76,1.17-1.36,1.88-1.8.7-.44,1.47-.71,2.32-.8.84-.09,1.75.05,2.72.42.97.37,1.74.87,2.31,1.5.57.63.97,1.34,1.2,2.14.23.8.3,1.66.21,2.59-.09.93-.32,1.87-.68,2.81l-5.26,13.85c-.36.94-.81,1.8-1.36,2.55-.55.76-1.18,1.36-1.88,1.8-.7.44-1.47.71-2.32.8-.84.09-1.75-.05-2.72-.42-.97-.37-1.74-.87-2.31-1.5-.57-.63-.97-1.34-1.2-2.14-.23-.8-.3-1.66-.21-2.59.09-.93.32-1.87.68-2.81l5.26-13.85ZM81.15,219.87c-.39,1.02-.53,1.82-.44,2.41.09.59.52,1.03,1.27,1.32.75.29,1.36.24,1.82-.14.46-.38.89-1.08,1.27-2.09l5.18-13.63c.39-1.02.53-1.82.44-2.41-.09-.59-.52-1.03-1.27-1.32-.76-.29-1.36-.24-1.83.14-.46.38-.89,1.08-1.27,2.09l-5.18,13.63Z"/>
        <path class="cls-1" d="M105.56,211.67c.07-.61.08-1.13.02-1.56s-.17-.78-.32-1.05c-.15-.27-.34-.48-.54-.63-.21-.15-.42-.24-.63-.28-.63-.12-1.15.03-1.58.45-.43.42-.72,1.07-.89,1.96-.15.81-.1,1.59.16,2.34.26.75.61,1.52,1.07,2.31.46.79.96,1.6,1.52,2.42.56.82,1.05,1.71,1.48,2.65.43.95.74,1.96.93,3.04.2,1.08.17,2.26-.07,3.53-.22,1.17-.57,2.18-1.04,3.03-.47.84-1.04,1.52-1.68,2.03s-1.38.85-2.2,1.02c-.82.17-1.68.17-2.58,0-.9-.17-1.66-.53-2.29-1.08-.63-.55-1.12-1.23-1.48-2.04-.35-.81-.58-1.71-.67-2.7-.09-.99-.06-2.02.1-3.1l3.82.03c-.19,1.45-.14,2.57.14,3.35.28.78.74,1.23,1.37,1.35.67.13,1.25,0,1.75-.36.5-.36.83-.96.99-1.8.18-.94.14-1.81-.1-2.62-.25-.8-.6-1.6-1.05-2.39-.46-.79-.96-1.59-1.52-2.4-.56-.81-1.06-1.67-1.49-2.59-.43-.92-.74-1.92-.94-3.02-.19-1.09-.16-2.31.1-3.67.43-2.27,1.28-3.91,2.56-4.93s2.87-1.34,4.79-.98c.79.15,1.47.46,2.03.91.56.46,1.01,1.04,1.34,1.73.33.7.56,1.49.68,2.38.12.89.13,1.84.03,2.84l-3.79-.19Z"/>
        <path class="cls-1" d="M122.34,234.72l-1.98-28.69,5.66-.39c2.44-.17,4.28.36,5.52,1.58,1.24,1.22,1.97,3.35,2.18,6.4.11,1.54.05,2.85-.16,3.94-.21,1.09-.59,2-1.12,2.71-.54.72-1.24,1.26-2.12,1.62-.88.37-1.92.59-3.13.68l-1.72.12.81,11.76-3.94.27ZM125.2,218.63l1.53-.1c.64-.04,1.17-.15,1.59-.31s.76-.43,1-.79c.24-.36.39-.83.46-1.41.07-.58.07-1.29.01-2.14-.06-.85-.16-1.55-.31-2.12-.15-.56-.36-1-.65-1.31-.29-.31-.65-.53-1.1-.64s-.99-.15-1.62-.11l-1.53.1.61,8.82Z"/>
        <path class="cls-1" d="M146.91,231.48l-3.82,1-7.26-27.83,5.37-1.4c2.14-.56,3.92-.35,5.33.63,1.42.97,2.51,2.94,3.28,5.89.3,1.13.47,2.12.52,2.95.05.84.02,1.56-.09,2.18-.11.62-.29,1.14-.52,1.56s-.49.76-.77,1.02l6.53,11.76-3.89,1.01-5.72-10.82c-.23.12-.53.23-.88.33-.36.11-.71.21-1.06.3l2.98,11.41ZM142.91,216.13l1.36-.35c.51-.13.93-.31,1.26-.53.33-.22.56-.53.7-.92.14-.39.19-.88.15-1.46-.04-.58-.17-1.28-.38-2.1-.43-1.64-.94-2.71-1.53-3.2-.59-.49-1.4-.6-2.43-.34l-1.36.35,2.23,8.56Z"/>
        <path class="cls-1" d="M153.73,206.72c-.43-.91-.73-1.83-.89-2.75-.17-.92-.16-1.79,0-2.6.17-.81.51-1.56,1.03-2.23.52-.67,1.25-1.23,2.19-1.67.94-.44,1.83-.65,2.68-.63.85.03,1.64.23,2.37.62.73.39,1.41.94,2.01,1.65.61.71,1.13,1.52,1.56,2.44l6.33,13.4c.43.91.73,1.83.89,2.75.17.92.16,1.79,0,2.6-.17.81-.51,1.56-1.03,2.23-.52.67-1.25,1.23-2.19,1.67-.94.44-1.84.65-2.68.63-.85-.03-1.64-.23-2.37-.62-.73-.39-1.41-.94-2.01-1.65-.61-.71-1.13-1.52-1.56-2.44l-6.33-13.4ZM163.58,218.33c.46.99.94,1.65,1.43,1.99.49.34,1.1.34,1.83,0,.73-.34,1.12-.81,1.17-1.41.05-.6-.16-1.39-.63-2.37l-6.23-13.19c-.47-.98-.94-1.65-1.43-1.99-.49-.34-1.1-.34-1.83,0-.73.34-1.12.81-1.17,1.41-.05.6.16,1.39.63,2.37l6.23,13.18Z"/>
        <path class="cls-1" d="M181.5,216.82l-16.85-23.31,4.6-3.32c1.98-1.43,3.82-1.96,5.52-1.58,1.7.38,3.45,1.8,5.24,4.28.9,1.25,1.55,2.39,1.95,3.43.4,1.04.56,2.01.48,2.9-.08.89-.39,1.73-.94,2.5-.55.78-1.32,1.52-2.3,2.23l-1.39,1.01,6.91,9.56-3.2,2.31ZM175.41,201.65l1.24-.9c.52-.37.91-.74,1.19-1.11.28-.36.42-.76.43-1.2.01-.44-.11-.91-.35-1.44-.25-.52-.62-1.13-1.12-1.82-.5-.69-.96-1.23-1.38-1.63-.42-.4-.84-.66-1.25-.77-.41-.11-.83-.1-1.27.03-.44.14-.92.39-1.43.77l-1.24.9,5.18,7.17Z"/>
        <path class="cls-1" d="M197.41,204.22l-20.02-20.65,2.84-2.75,20.02,20.65-2.84,2.75Z"/>
        <path class="cls-1" d="M188.68,182.23c-.8-.62-1.48-1.3-2.05-2.04-.57-.75-.96-1.52-1.18-2.32-.22-.8-.25-1.62-.1-2.45.16-.83.55-1.66,1.19-2.49.64-.82,1.34-1.42,2.1-1.78.77-.36,1.56-.54,2.39-.53.83,0,1.68.19,2.54.55.86.36,1.7.85,2.5,1.46l11.74,9.05c.8.62,1.48,1.3,2.05,2.04.57.74.96,1.52,1.18,2.32.22.8.25,1.62.1,2.45-.16.83-.55,1.66-1.19,2.49-.64.82-1.34,1.42-2.1,1.78-.77.36-1.56.54-2.39.53-.83,0-1.68-.19-2.54-.55-.86-.36-1.7-.84-2.5-1.46l-11.74-9.05ZM202.74,188.07c.86.67,1.59,1.04,2.18,1.12.59.08,1.13-.2,1.63-.84.49-.64.63-1.23.4-1.79-.23-.55-.77-1.16-1.64-1.82l-11.55-8.9c-.86-.67-1.59-1.04-2.18-1.12-.59-.08-1.13.2-1.63.84-.49.64-.63,1.24-.4,1.79.23.55.77,1.16,1.64,1.82l11.55,8.9Z"/>
        <path class="cls-1" d="M201.96,162.35c-.56-.24-1.06-.4-1.48-.47-.43-.07-.8-.07-1.1,0-.31.07-.56.18-.76.34-.2.16-.35.33-.45.52-.29.56-.3,1.11-.03,1.64.28.53.82,1,1.62,1.42.73.38,1.49.56,2.29.53.79-.03,1.63-.15,2.52-.35.89-.21,1.81-.46,2.75-.75.95-.3,1.94-.51,2.97-.64,1.03-.13,2.09-.14,3.18-.01,1.09.13,2.21.49,3.36,1.09,1.06.55,1.92,1.18,2.59,1.88.67.7,1.16,1.43,1.46,2.2.3.77.42,1.57.34,2.41-.08.83-.33,1.66-.75,2.47-.42.81-.99,1.44-1.7,1.88-.71.44-1.51.72-2.38.82-.88.11-1.81.06-2.78-.14-.98-.2-1.95-.53-2.94-1l1.14-3.65c1.33.6,2.42.88,3.25.83.83-.04,1.4-.35,1.69-.91.31-.6.37-1.2.17-1.78-.2-.59-.68-1.07-1.44-1.47-.85-.44-1.69-.66-2.53-.66-.84,0-1.71.11-2.59.32-.89.21-1.8.46-2.74.77-.94.3-1.91.53-2.91.67-1.01.15-2.06.15-3.16.02-1.1-.13-2.26-.52-3.49-1.16-2.05-1.07-3.37-2.36-3.98-3.87-.6-1.51-.45-3.14.45-4.87.37-.72.86-1.28,1.46-1.68.6-.4,1.28-.67,2.05-.78.76-.12,1.59-.11,2.48.04.89.14,1.8.4,2.73.8l-1.28,3.57Z"/>
      </g>
      <g>
        <g>
          <path class="cls-3" d="M140.01,158.85c-.02-.12-.03-.23-.05-.35-.98-.91-1.04-1.52-.13-2.52.68-.74,1.21-1.5,1.21-2.56,0-.29.16-.66.37-.87,1.06-1,2.03-2.04,2.49-3.46.02-.08.11-.18.17-.19,1.63-.27,2.52-1.81,4-2.33.3-.11.67-.16.88-.37.27-.27.55-.68.55-1.02,0-.24-.46-.49-.74-.72-.62-.52-1.45-.9-1.85-1.56-1.88-3.08-2.1-6.34-.24-9.47.93-1.57,2.22-2.98,3.55-4.26,1.59-1.52,2.85-3.2,3.58-5.27.11-.3.23-.63.45-.85.22-.21.57-.29.95-.48-.1.68-.17,1.12-.27,1.76.52-.33.81-.53,1.11-.69.31-.17.65-.29.95-.47.25-.15.48-.35.71-.53-.22-.25-.39-.63-.66-.72-1.25-.41-1.36-1.16-.11-2.07.28-.21.6-.38.92-.52,1.86-.76,3.71-1.53,5.59-2.22.74-.27,1.55-.5,2.32-.48,1.57.03,2.69-.59,3.63-1.8,1.15-1.46,2.69-2.31,4.53-2.73.71-.16,1.38-.6,1.99-1.03.55-.39.96-.96,1.48-1.39,1.33-1.09,1.85-2.4,1.24-4.07-.02-.06.04-.15.07-.27.16.01.32.08.44.03.36-.13.7-.29,1.05-.45-.16-.34-.24-.8-.51-.99-.65-.45-1.39-.77-2.09-1.14-1.16-.61-2.24-.46-3.18.41-.45.43-.84.43-1.34.16-.26-.14-.54-.24-.81-.36-1.26-.56-2.52-1.4-3.74.21-1.15-1.62-2.56-2.12-4.34-1.59-.21.06-.65-.3-.83-.57-.2-.3-.24-.72-.34-1.09-.23-.94-.77-1.53-1.71-1.84-1.03-.33-2.02-.79-3.02-1.2-.74-.3-1.43-.14-1.52.5-.16,1.19-.83,1.13-1.68.93-.49-.11-.98-.22-1.48-.27-.93-.1-1.87-.13-2.8-.23-.43-.04-.95-.05-1.24-.29-.89-.74-1.85-1.13-3.01-1-.62.07-1.02-.2-1.4-.71-.36-.47-.86-.9-1.4-1.13-.95-.42-1.98-.67-2.97-.99-.14-.05-.29-.11-.38-.21-.27-.3-.48-.81-.8-.89-.31-.07-.72.29-1.11.47.41-2.5-.29-3.36-2.86-3.56-.91-.07-1.86-.21-2.73-.02-2.25.49-3.74-1.26-5.65-1.77-.9-.24-1.72-.42-2.4.32-.43.47-.76.36-1.23.1-.6-.34-1.25-.57-1.88-.85-.13-.06-.3-.1-.38-.21-.87-1.27-2.08-1.09-3.34-.83-2,.4-4.01.84-6.04.37-1.66-.39-3.3-.87-4.94-1.33-.28-.08-.52-.28-.79-.39-1.02-.43-2.04-.88-3.08-1.26-.6-.22-1.28-.27-1.53-1.02-.27-.82-.57-.92-1.36-.52-.39.2-.81.52-1.2.5-2.47-.11-4.95-.19-7.39-.51-1.6-.21-3.31-.47-4.22-2.2-.12-.23-.53-.33-.82-.42-.6-.19-1.21-.34-1.81-.51-.48-.03-1.2.33-1.52.11-.94-.64-1.3-.2-1.53.44-1.26.03-1.91.86-2.62,1.31.23.48.63.97.52,1.18-.21.38-.69.71-1.12.85-.67.21-1.39.31-2.09.3-.51-.01-1.08-.19-1.51-.46-.64-.4-1.55-.33-1.7.37-.14.64-.53.65-.96.64-.86-.02-1.65-.02-1.8,1.12-.03.26-.34.48-.47.74-.16.32-.28.66-.35.84.46.41.91.63,1.05.97.14.35-.04.83-.09,1.36.72-.19,1.38-.37,2.25-.6-.23.29-.32.39-.39.5-.47.67-1,1.31-1.37,2.03-.13.27.03.83.26,1.08.14.16.67.03.99-.07.28-.08.52-.31.87-.53-.06.61-.3,1.22-.1,1.49.57.74.2,1.21-.2,1.78-.23.32-.47.72-.46,1.09,0,.18.57.34.91.53-1.07.93-2.25,1.78-1.94,3.7,1.17-.51,2.26-.99,3.36-1.46.54-.23,1.07-.59,1.63-.63.41-.03.95.26,1.25.59.41.44-.05.78-.38,1.09-.59.56-.56.95.12,1.39.85.56,1.62.3,2.28-.24.26.17.5.47.65.42,1.15-.32,1.76,1.42,2.97.77.02-.01.09.06.14.09,1.17.66,1.53.5,2.11-.77.12-.26.55-.55.81-.53,1.08.1,2.15.31,3.22.48,1.59.25,2.47,1.13,2.35,2.67-.09,1.15.3,1.71,1.34,2.11,1.08.42,1.24,1.34.44,2.2-.43.46-1,.81-1.54,1.16-1.47.93-2.97,1.81-4.42,2.75-.23.15-.41.54-.43.84-.19,2.46-.33,4.93-.49,7.4-.04.6-.31.92-.99,1-1.22.14-1.72.99-1.36,2.16.11.36.29.71.44,1.06.83,1.94-.24,3.54-2.37,3.47-.73-.02-1.46-.22-2.19-.26-.4-.02-.8.14-1.2.22.24.39.45.8.73,1.16.24.31.86.69.8.83-.42,1.05.02,1.89.46,2.75.02.05,0,.12,0,.18-.03.97.39,1.69,1.23,2.18.74.43.76.75.25,1.49-.21.3-.51.72-.44.99.22.83-.27,1.1-.84,1.42-2.47,1.38-2.83,4.37-.78,6.33.97.93.95,1.55-.09,2.4-.3.24-.67.39-.94.65-.37.36-.69.77-1,1.19-.24.31-.37.71-.65.97-1.77,1.67-2.38,3.66-1.79,6.02.2.81.65,1.26,1.49,1.41,1.06.19,2.09.29,2.8-.26,1,.87,1.84,1.77,2.85,2.43,1.68,1.1,1.96,1.5,1.69,3.54-.13.95.05,1.74.9,2.32.34.23.6.58.98.97-.49.06-.79.09-1.24.15.25.66.42,1.26.7,1.79.93,1.78,2.48,2.97,4.04,4.15,1.29.98,1.9.81,2.41-.72,1.08.76,1.46-.04,1.95-.82,1.31-2.09,3.25-3.1,5.69-2.81,1.1.14,1.97-.16,2.67-.8.9-.81,1.91-1.02,3.01-1.02,2.54,0,5.07.08,7.61.11,1.38.02,2.63.38,3.89,1,.84.42,1.93.47,2.9.43.47-.02.93-.6,1.36-.97,1.24-1.07,3.05-1.43,3.88.77.04.11.11.21.24.45.39-.48.78-.87,1.07-1.33.65-1.05,1.23-2.15,1.88-3.2,2.01-3.2,4.65-5.2,8.71-4.64.77.11,1.6-.3,2.41-.47ZM176.23,140.88c.21-.01.28,0,.33-.02,1.79-.57,2.09-2.56,3.4-3.61.33-.26.28-1,.41-1.52.17-.65-.14-.89-.74-.83-.23.02-.45.19-.67.19-.35,0-.8.03-1.03-.17-.17-.15-.06-.62-.06-.96,0-.21.01-.41.02-.62h-.17c.16-.22.32-.43.49-.67-1,.23-1.89.47-2.79.62-.84.14-1.6.36-2.08,1.16-.12.21-.4.33-.62.46-.93.53-1.86,1.05-2.86,1.62.59.54,1.16,1.05,1.6,1.45.53-.31,1.08-.89,1.56-.85.75.08.75.93.81,1.58,0,.09,0,.21.06.25.28.25.59.69.87.67.92-.05,1.49.19,1.49,1.24ZM184.23,133.51c1.2-.97,1.86.12,2.69.68.37.25.81.38,1.33.62.08-.43.25-.75.17-.98-.36-1.01-.87-1.93-2.02-2.19-.56.04-1.14.03-1.72.02-.47-.01-.95-.03-.8.67.07.35.2.69.35,1.19ZM162.99,142.63c-.66-1.26-.65-1.25-1.79-.6-.29.17-.65.21-.98.3.05.05.11.1.16.16-.31.35-.65.68-.93,1.05-.17.22-.28.49-.35.76-.02.07.2.28.34.31.48.12.97.2,1.47.29.64-.7,1.34-1.46,2.09-2.27ZM162.52,146.85c-.63-.29-1.12-.52-1.78-.83-.07.43-.14.89-.23,1.48.81-.19,1.63.3,2.01-.64Z"/>
          <path class="cls-3" d="M140.01,158.85c-.81.17-1.64.57-2.41.47-4.06-.56-6.7,1.44-8.71,4.64-.66,1.05-1.23,2.15-1.88,3.2-.29.46-.68.85-1.07,1.33-.13-.24-.2-.34-.24-.45-.82-2.2-2.64-1.84-3.88-.77-.43.37-.89.95-1.36.97-.97.04-2.06-.01-2.9-.43-1.26-.62-2.51-.98-3.89-1-2.54-.03-5.07-.1-7.61-.11-1.1,0-2.11.21-3.01,1.02-.7.64-1.57.93-2.67.8-2.43-.3-4.38.72-5.69,2.81-.49.77-.87,1.58-1.95.82-.51,1.53-1.12,1.7-2.41.72-1.55-1.18-3.1-2.37-4.04-4.15-.28-.53-.44-1.13-.7-1.79.45-.05.75-.09,1.24-.15-.38-.39-.64-.74-.98-.97-.85-.58-1.02-1.37-.9-2.32.27-2.04-.01-2.44-1.69-3.54-1.01-.66-1.85-1.57-2.85-2.43-.71.55-1.74.45-2.8.26-.84-.15-1.29-.6-1.49-1.41-.59-2.37.02-4.35,1.79-6.02.28-.26.41-.66.65-.97.31-.41.63-.83,1-1.19.27-.26.65-.41.94-.65,1.04-.85,1.06-1.47.09-2.4-2.05-1.96-1.69-4.95.78-6.33.57-.32,1.06-.59.84-1.42-.07-.28.24-.69.44-.99.51-.75.49-1.06-.25-1.49-.85-.49-1.26-1.21-1.23-2.18,0-.06.02-.13,0-.18-.44-.87-.88-1.71-.46-2.75.06-.14-.56-.52-.8-.83-.28-.36-.49-.77-.73-1.16.4-.08.81-.24,1.2-.22.73.04,1.46.24,2.19.26,2.13.07,3.21-1.53,2.37-3.47-.15-.35-.33-.7-.44-1.06-.36-1.17.14-2.02,1.36-2.16.68-.08.95-.4.99-1,.17-2.47.31-4.93.49-7.4.02-.29.2-.69.43-.84,1.46-.95,2.95-1.83,4.42-2.75.54-.34,1.11-.69,1.54-1.16.79-.85.63-1.77-.44-2.2-1.04-.41-1.43-.96-1.34-2.11.12-1.54-.76-2.43-2.35-2.67-1.07-.17-2.14-.39-3.22-.48-.26-.02-.7.27-.81.53-.58,1.27-.94,1.43-2.11.77-.05-.03-.12-.1-.14-.09-1.22.66-1.82-1.09-2.97-.77-.15.04-.39-.25-.65-.42-.66.54-1.43.8-2.28.24-.68-.44-.71-.84-.12-1.39.33-.31.79-.65.38-1.09-.3-.32-.84-.62-1.25-.59-.55.04-1.09.4-1.63.63-1.09.47-2.18.95-3.36,1.46-.31-1.91.87-2.77,1.94-3.7-.35-.19-.91-.35-.91-.53,0-.36.24-.76.46-1.09.4-.57.77-1.04.2-1.78-.2-.27.04-.88.1-1.49-.35.22-.59.44-.87.53-.32.1-.85.22-.99.07-.23-.25-.4-.82-.26-1.08.36-.72.9-1.36,1.37-2.03.07-.11.16-.21.39-.5-.88.23-1.53.41-2.25.6.05-.54.22-1.01.09-1.36-.13-.35-.59-.57-1.05-.97.07-.17.18-.52.35-.84.13-.26.44-.48.47-.74.15-1.15.94-1.14,1.8-1.12.42.01.82,0,.96-.64.15-.7,1.06-.77,1.7-.37.43.27,1,.45,1.51.46.7.01,1.42-.09,2.09-.3.43-.13.91-.47,1.12-.85.11-.21-.29-.7-.52-1.18.71-.46,1.37-1.28,2.62-1.31.23-.63.59-1.08,1.53-.44.33.22,1.05-.14,1.52-.11.6.17,1.21.32,1.81.51.3.1.71.2.82.42.9,1.72,2.62,1.99,4.22,2.2,2.44.32,4.92.4,7.39.51.39.02.81-.3,1.2-.5.78-.4,1.08-.3,1.36.52.25.75.93.8,1.53,1.02,1.04.38,2.06.83,3.08,1.26.27.11.51.32.79.39,1.64.46,3.28.94,4.94,1.33,2.04.47,4.05.04,6.04-.37,1.26-.25,2.47-.44,3.34.83.07.11.24.15.38.21.63.28,1.29.51,1.88.85.47.26.8.37,1.23-.1.68-.74,1.51-.55,2.4-.32,1.91.51,3.4,2.25,5.65,1.77.87-.19,1.82-.05,2.73.02,2.57.19,3.26,1.06,2.86,3.56.39-.18.8-.55,1.11-.47.32.08.52.59.8.89.09.1.24.17.38.21.99.33,2.02.58,2.97.99.53.23,1.04.66,1.4,1.13.38.5.78.78,1.4.71,1.16-.13,2.12.26,3.01,1,.3.24.82.25,1.24.29.93.1,1.87.13,2.8.23.5.05.99.15,1.48.27.85.2,1.52.26,1.68-.93.08-.65.78-.8,1.52-.5,1,.41,1.99.86,3.02,1.2.95.31,1.48.9,1.71,1.84.09.37.13.79.34,1.09.18.27.62.63.83.57,1.78-.53,3.19-.03,4.34,1.59,1.22-1.62,2.48-.78,3.74-.21.27.12.55.21.81.36.49.27.88.27,1.34-.16.93-.88,2.02-1.03,3.18-.41.7.37,1.44.69,2.09,1.14.27.19.34.65.51.99-.35.15-.69.32-1.05.45-.12.04-.28-.02-.44-.03-.03.12-.09.21-.07.27.61,1.67.08,2.98-1.24,4.07-.52.43-.93,1.01-1.48,1.39-.61.43-1.28.87-1.99,1.03-1.83.41-3.38,1.26-4.53,2.73-.95,1.2-2.07,1.83-3.63,1.8-.77-.02-1.59.21-2.32.48-1.88.69-3.73,1.46-5.59,2.22-.33.13-.64.31-.92.52-1.25.91-1.14,1.66.11,2.07.27.09.44.47.66.72-.24.18-.46.38-.71.53-.3.18-.64.3-.95.47-.3.17-.59.37-1.11.69.1-.64.16-1.08.27-1.76-.38.18-.73.26-.95.48-.22.21-.35.54-.45.85-.73,2.08-1.99,3.75-3.58,5.27-1.33,1.27-2.62,2.68-3.55,4.26-1.86,3.13-1.65,6.39.24,9.47.4.65,1.23,1.04,1.85,1.56.27.23.73.48.74.72,0,.34-.28.75-.55,1.02-.21.21-.58.27-.88.37-1.48.52-2.37,2.06-4,2.33-.07.01-.15.12-.17.19-.46,1.42-1.43,2.46-2.49,3.46-.21.2-.37.57-.37.87,0,1.06-.53,1.82-1.21,2.56-.91,1-.85,1.62.13,2.52.02.12.03.23.05.35Z"/>
          <path class="cls-3" d="M176.23,140.88c0-1.05-.57-1.29-1.49-1.24-.28.01-.59-.43-.87-.67-.05-.05-.05-.17-.06-.25-.06-.65-.05-1.5-.81-1.58-.48-.05-1.03.54-1.56.85-.44-.4-1-.91-1.6-1.45,1-.56,1.93-1.08,2.86-1.62.22-.13.5-.25.62-.46.48-.8,1.23-1.02,2.08-1.16.9-.15,1.79-.4,2.79-.62-.18.24-.33.45-.49.66h.17c0,.21-.02.42-.02.63,0,.33-.11.81.06.96.23.2.67.17,1.03.17.22,0,.45-.17.67-.19.6-.05.9.18.74.83-.13.52-.08,1.26-.41,1.52-1.31,1.05-1.61,3.04-3.4,3.61-.05.02-.12,0-.33.02Z"/>
          <path class="cls-3" d="M184.23,133.51c-.15-.49-.28-.83-.35-1.19-.14-.7.34-.68.8-.67.58.01,1.16.03,1.72-.02,1.15.26,1.66,1.17,2.02,2.19.08.23-.09.55-.17.98-.51-.23-.96-.37-1.33-.62-.84-.56-1.5-1.65-2.69-.68Z"/>
          <path class="cls-3" d="M162.99,142.63c-.74.81-1.45,1.57-2.09,2.27-.5-.1-.99-.17-1.47-.29-.14-.03-.36-.24-.34-.31.07-.27.19-.54.35-.76.28-.37.62-.7.93-1.05-.05-.05-.11-.1-.16-.16.33-.1.69-.14.98-.3,1.13-.65,1.13-.66,1.79.6Z"/>
          <path class="cls-3" d="M162.52,146.85c-.38.95-1.2.45-2.01.64.09-.59.16-1.04.23-1.48.66.31,1.15.54,1.78.83Z"/>
        </g>
        <path class="cls-10" d="M178.72,105.36c.16.01.32.08.45.03.36-.13.7-.29,1.05-.45-.16-.34-.24-.8-.51-.99-.65-.45-1.39-.77-2.09-1.14-1.16-.61-2.25-.46-3.18.41-.46.43-.84.44-1.34.16-.26-.14-.54-.24-.81-.36-1.26-.56-2.52-1.4-3.74.21-1.15-1.62-2.56-2.12-4.34-1.59-.21.06-.65-.3-.83-.57-.2-.3-.24-.72-.33-1.09-.23-.94-.77-1.53-1.71-1.84-1.03-.33-2.02-.79-3.02-1.2-.74-.3-1.43-.14-1.52.5-.16,1.19-.83,1.13-1.68.93-.49-.11-.98-.22-1.48-.27-.93-.09-1.87-.13-2.8-.23-.43-.04-.95-.05-1.24-.29-.89-.74-1.85-1.13-3.01-1-.62.07-1.02-.2-1.4-.71-.36-.47-.86-.9-1.4-1.13-.95-.42-1.98-.67-2.97-.99-.14-.05-.29-.11-.38-.21-.28-.3-.48-.81-.8-.89-.31-.07-.72.29-1.11.47.41-2.5-.28-3.36-2.86-3.56-.91-.07-1.86-.21-2.73-.02-2.25.48-3.74-1.26-5.65-1.77-.89-.24-1.72-.42-2.4.32-.43.47-.76.36-1.23.1-.6-.34-1.25-.57-1.88-.85-.13-.06-.3-.1-.38-.21-.87-1.27-2.08-1.09-3.34-.83-2,.4-4.01.84-6.04.37-1.66-.39-3.3-.87-4.94-1.33-.28-.08-.52-.28-.79-.39-1.02-.43-2.04-.88-3.08-1.26-.6-.22-1.28-.27-1.53-1.02-.27-.82-.57-.92-1.35-.52-.39.2-.81.52-1.2.5-2.47-.11-4.95-.19-7.39-.51-1.6-.21-3.31-.47-4.22-2.2-.12-.23-.53-.33-.82-.42-.6-.19-1.21-.34-1.81-.51-.48-.03-1.2.33-1.53.11-.94-.64-1.3-.2-1.53.44-1.26.03-1.91.86-2.62,1.31.23.48.63.97.52,1.18-.21.38-.69.71-1.13.85-.67.21-1.39.31-2.09.3-.51-.01-1.08-.19-1.51-.46-.64-.4-1.54-.33-1.7.37-.14.64-.53.65-.96.64-.86-.02-1.65-.02-1.8,1.12-.04.26-.34.48-.47.74-.16.32-.28.66-.35.84.46.41.91.63,1.05.97.14.35-.04.83-.09,1.36.72-.19,1.38-.37,2.25-.6-.23.29-.32.39-.39.5-.47.67-1,1.31-1.37,2.03-.13.27.04.83.26,1.08.14.16.67.03.99-.07.28-.08.52-.31.87-.53-.06.61-.3,1.22-.1,1.49.57.74.2,1.21-.2,1.78-.23.32-.47.72-.46,1.09,0,.05.12.1.2.16l105.99,9.64s0,0,0-.02Z"/>
        <path class="cls-6" d="M76.15,156.34c.2.81.65,1.26,1.49,1.41,1.06.19,2.09.29,2.8-.26,1,.87,1.84,1.77,2.85,2.43,1.68,1.1,1.96,1.5,1.69,3.54-.13.95.05,1.74.9,2.32.34.23.6.58.98.97-.49.06-.79.09-1.24.15.25.66.42,1.26.69,1.79.93,1.78,2.48,2.97,4.04,4.15,1.28.97,1.9.81,2.41-.72,1.08.76,1.46-.04,1.95-.82,1.31-2.09,3.25-3.1,5.68-2.81,1.1.14,1.97-.16,2.67-.79.89-.81,1.91-1.02,3.01-1.02,2.53,0,5.07.08,7.6.11,1.38.02,2.63.38,3.89,1,.84.42,1.93.47,2.9.43.47-.02.93-.6,1.36-.97,1.24-1.07,3.05-1.43,3.88.77.04.11.11.21.24.45.39-.48.78-.87,1.07-1.33.65-1.05,1.23-2.15,1.89-3.2,2.01-3.2,4.65-5.2,8.71-4.64.77.11,1.6-.3,2.41-.47-.02-.12-.03-.23-.05-.35-.19-.18-.32-.34-.44-.5l-62.99-5.73c-.59,1.22-.76,2.56-.38,4.07Z"/>
        <path class="cls-2" d="M71.5,99.81c1.17-.51,2.26-.99,3.36-1.46.54-.23,1.07-.59,1.63-.63.41-.03.95.26,1.25.59.41.44-.05.78-.38,1.09-.59.56-.56.95.12,1.39.85.56,1.62.3,2.28-.24.25.17.5.47.65.42,1.15-.32,1.75,1.42,2.97.76.02-.01.09.06.14.09,1.17.66,1.53.5,2.11-.77.12-.26.55-.55.81-.53,1.08.1,2.15.31,3.22.48,1.58.25,2.47,1.13,2.35,2.67-.09,1.15.3,1.71,1.34,2.11,1.08.42,1.24,1.34.44,2.2-.43.46-1,.81-1.54,1.16-1.47.93-2.97,1.81-4.42,2.75-.23.15-.41.54-.43.84-.17,2.29-.31,4.58-.46,6.87l66.01,6c.31-.56.66-1.08.88-1.71.11-.3.23-.63.45-.85.22-.21.57-.29.95-.48-.1.68-.17,1.12-.27,1.76.52-.33.81-.53,1.11-.69.31-.17.65-.29.95-.47.26-.15.48-.35.71-.53-.22-.25-.39-.63-.66-.72-1.25-.41-1.36-1.16-.11-2.07.28-.21.6-.38.92-.52,1.86-.76,3.71-1.53,5.59-2.22.74-.27,1.55-.5,2.32-.48,1.57.03,2.69-.59,3.63-1.8,1.15-1.46,2.7-2.31,4.53-2.73.71-.16,1.38-.6,1.99-1.03.55-.39.96-.96,1.48-1.39,1.33-1.09,1.85-2.4,1.24-4.07-.02-.06.03-.15.07-.25l-105.99-9.64c.19.12.47.24.72.37-1.07.93-2.26,1.78-1.94,3.7Z"/>
        <path class="cls-13" d="M81.2,132.52s0,.12,0,.18c-.03.97.39,1.69,1.23,2.18.74.43.76.75.25,1.49-.21.3-.51.72-.44.99.22.83-.27,1.1-.84,1.42-2.47,1.38-2.83,4.37-.78,6.33.97.93.95,1.55-.09,2.4-.3.24-.67.39-.94.65-.37.36-.69.77-1,1.19-.23.31-.37.71-.65.97-.64.6-1.07,1.26-1.41,1.95l62.99,5.73c-.49-.66-.42-1.22.31-2.02.68-.74,1.21-1.5,1.21-2.56,0-.29.16-.66.37-.87,1.06-1,2.03-2.04,2.49-3.46.03-.08.11-.18.17-.19,1.63-.27,2.52-1.81,4-2.33.3-.11.67-.16.88-.37.27-.27.55-.67.55-1.02,0-.24-.46-.49-.74-.72-.62-.52-1.45-.9-1.85-1.56-.99-1.61-1.48-3.27-1.5-4.94l-64.39-5.85c.07.13.1.27.17.4Z"/>
        <path class="cls-15" d="M178.65,105.63c-.02-.06.03-.15.07-.25l-105.99-9.64c.19.12.47.24.72.37-1.07.93-2.26,1.78-1.94,3.7,1.17-.51,2.26-.99,3.36-1.46.54-.23,1.07-.59,1.63-.63.41-.03.95.26,1.25.59.41.44-.05.78-.38,1.09-.59.56-.56.95.12,1.39.85.56,1.62.3,2.28-.24.25.17.5.47.65.42,1.15-.32,1.75,1.42,2.97.76.02-.01.09.06.14.09,1.17.66,1.53.5,2.11-.77.12-.26.55-.55.81-.53,1.08.1,2.15.31,3.22.48,1.58.25,2.47,1.13,2.35,2.67-.09,1.15.3,1.71,1.34,2.11,1.08.42,1.24,1.34.44,2.2-.43.46-1,.81-1.54,1.16-1.47.93-2.97,1.81-4.42,2.75-.23.15-.41.54-.43.84-.17,2.29-.31,4.58-.46,6.87-.01.17-.02.35-.03.52-.04.6-.31.92-.99,1-1.22.14-1.72.99-1.36,2.16.11.36.29.71.44,1.06.84,1.94-.24,3.54-2.37,3.47-.73-.02-1.46-.22-2.19-.26-.4-.02-.8.14-1.2.22.24.39.45.8.73,1.16.24.31.86.69.8.83-.36.88-.07,1.62.29,2.35.07.13.1.27.17.4.02.05,0,.12,0,.18-.03.97.39,1.69,1.23,2.18.74.43.76.75.25,1.49-.21.3-.51.72-.44.99.22.83-.27,1.1-.84,1.42-2.47,1.38-2.83,4.37-.78,6.33.97.93.95,1.55-.09,2.4-.3.24-.67.39-.94.65-.37.36-.69.77-1,1.19-.23.31-.37.71-.65.97-.64.6-1.07,1.26-1.41,1.95l62.99,5.73c-.49-.66-.42-1.22.31-2.02.68-.74,1.21-1.5,1.21-2.56,0-.29.16-.66.37-.87,1.06-1,2.03-2.04,2.49-3.46.03-.08.11-.18.17-.19,1.63-.27,2.52-1.81,4-2.33.3-.11.67-.16.88-.37.27-.27.55-.67.55-1.02,0-.24-.46-.49-.74-.72-.62-.52-1.45-.9-1.85-1.56-.99-1.61-1.48-3.27-1.5-4.94-.01-1.52.37-3.04,1.26-4.54.94-1.57,2.22-2.98,3.55-4.26,1.12-1.07,1.98-2.26,2.7-3.56.31-.56.66-1.08.88-1.71.11-.3.23-.63.45-.85.22-.21.57-.29.95-.48-.1.68-.17,1.12-.27,1.76.52-.33.81-.53,1.11-.69.31-.17.65-.29.95-.47.26-.15.48-.35.71-.53-.22-.25-.39-.63-.66-.72-1.25-.41-1.36-1.16-.11-2.07.28-.21.6-.38.92-.52,1.86-.76,3.71-1.53,5.59-2.22.74-.27,1.55-.5,2.32-.48,1.57.03,2.69-.59,3.63-1.8,1.15-1.46,2.7-2.31,4.53-2.73.71-.16,1.38-.6,1.99-1.03.55-.39.96-.96,1.48-1.39,1.33-1.09,1.85-2.4,1.24-4.07Z"/>
        <path class="cls-7" d="M179.96,137.25c.33-.26.27-1,.41-1.52.17-.65-.14-.89-.74-.83-.23.02-.45.19-.67.19-.35,0-.8.03-1.03-.17-.17-.15-.06-.62-.06-.96,0-.21.01-.41.02-.62-.06,0-.11,0-.17,0,.16-.21.32-.42.49-.66-1,.23-1.89.47-2.8.62-.84.14-1.6.36-2.08,1.16-.12.2-.4.33-.62.46-.93.53-1.86,1.05-2.86,1.62.59.54,1.16,1.05,1.6,1.45.53-.31,1.08-.9,1.56-.85.75.08.75.93.81,1.58,0,.09,0,.21.06.25.28.25.59.69.87.67.87-.04,1.39.22,1.44,1.12l.47.04c1.69-.61,2.02-2.53,3.31-3.56Z"/>
        <path class="cls-5" d="M176.56,140.86s.06-.04.09-.05l-.47-.04c0,.05.05.06.05.12.21-.01.28,0,.33-.02Z"/>
        <path class="cls-14" d="M176.56,140.86s.06-.04.09-.05l-.47-.04c0,.05.05.06.05.12.21-.01.28,0,.33-.02Z"/>
        <path class="cls-12" d="M186.93,134.19c.37.25.81.38,1.33.62.08-.43.25-.75.17-.98-.36-1.01-.87-1.93-2.02-2.19-.56.04-1.14.03-1.72.02-.47-.01-.95-.03-.8.67.07.35.2.69.35,1.19,1.19-.97,1.85.12,2.69.68Z"/>
        <path class="cls-8" d="M161.21,142.03c-.29.17-.65.21-.98.3l.16.16c-.31.35-.65.68-.93,1.05-.17.22-.28.49-.35.76-.02.07.2.28.34.31.48.12.97.2,1.47.29.64-.7,1.34-1.46,2.09-2.27-.66-1.26-.65-1.25-1.79-.6Z"/>
        <path class="cls-4" d="M161.21,142.03c-.29.17-.65.21-.98.3l.16.16c-.31.35-.65.68-.93,1.05-.17.22-.28.49-.35.76-.02.07.2.28.34.31.48.12.97.2,1.47.29.64-.7,1.34-1.46,2.09-2.27-.66-1.26-.65-1.25-1.79-.6Z"/>
        <path class="cls-11" d="M160.51,147.49c.81-.19,1.63.3,2.01-.64-.63-.29-1.12-.52-1.78-.83-.07.43-.14.89-.23,1.48Z"/>
        <path class="cls-9" d="M160.51,147.49c.81-.19,1.63.3,2.01-.64-.63-.29-1.12-.52-1.78-.83-.07.43-.14.89-.23,1.48Z"/>
      </g>
    </g>
  </g>
</svg>